<svg xmlns="http://www.w3.org/2000/svg" xmlns:xlink="http://www.w3.org/1999/xlink" viewBox="0 0 704.98 471.97"><defs><style>.cls-1{fill:#0b5f31;}.cls-2{fill:#fff;}.cls-3{fill:#080808;}.cls-4{fill:#3d3a36;}.cls-5{fill:#a61e22;}.cls-6{fill:#1e1d1a;}.cls-7{fill:none;stroke:#c5262c;stroke-linecap:round;stroke-linejoin:round;stroke-width:0;}.cls-8{fill:#c5262c;}.cls-9{fill:#6a6662;}.cls-10{fill:#e6e6e5;}.cls-11{fill:#b4b4b3;}.cls-12{opacity:0.5;}.cls-13{fill:url(#Fade_to_White_1);}.cls-14{fill:url(#Fade_to_White_1-2);}.cls-15{fill:url(#linear-gradient);}</style><linearGradient id="Fade_to_White_1" x1="129.12" y1="146.86" x2="200.46" y2="240.09" gradientUnits="userSpaceOnUse"><stop offset="0" stop-color="#fdfdfe" stop-opacity="0"/><stop offset="0.16" stop-color="#fdfdfe" stop-opacity="0.01"/><stop offset="0.29" stop-color="#fdfdfe" stop-opacity="0.05"/><stop offset="0.41" stop-color="#fdfdfe" stop-opacity="0.12"/><stop offset="0.53" stop-color="#fdfdfe" stop-opacity="0.21"/><stop offset="0.63" stop-color="#fdfdfe" stop-opacity="0.33"/><stop offset="0.74" stop-color="#fdfdfe" stop-opacity="0.48"/><stop offset="0.84" stop-color="#fdfdfe" stop-opacity="0.66"/><stop offset="0.94" stop-color="#fdfdfe" stop-opacity="0.86"/><stop offset="1" stop-color="#fdfdfe"/></linearGradient><linearGradient id="Fade_to_White_1-2" x1="145.32" y1="134.46" x2="216.66" y2="227.69" xlink:href="#Fade_to_White_1"/><linearGradient id="linear-gradient" x1="-1329.09" y1="1947.6" x2="-805.86" y2="1738.82" gradientTransform="matrix(0.97, -0.23, 0.23, 0.97, 994.03, -1673.67)" gradientUnits="userSpaceOnUse"><stop offset="0" stop-color="#fff"/><stop offset="1" stop-color="#fff" stop-opacity="0"/></linearGradient></defs><title>logo_1</title><g id="Layer_2" data-name="Layer 2"><g id="Layer_1-2" data-name="Layer 1"><path class="cls-1" d="M705,192.33l-9.32-21.2-7.45-17c-21.9-49.82-51.5-80.93-68.22-95.75a23.24,23.24,0,0,0-17-27.66C592.2,28,536.05,14.06,492.29,6A365.34,365.34,0,0,0,426.76,0h0C355.92,0,300.37,20.55,274.34,56.39c-16,22.08-21.06,48.54-15,78.77-141,58.61-236,166.55-253.91,188a23.22,23.22,0,0,0,17.81,38.12H24l.36,0C47.46,360,163.8,351.08,320.74,293a171.92,171.92,0,0,1-16.58,17.68c-3.51,3.31-82.58,78.19-107.71,123.24a23.23,23.23,0,0,0,20.29,34.54,22.52,22.52,0,0,0,3.17-.22c2.58-.35,6.49-.94,11.5-1.69,29.81-4.48,99.62-15,148.77-15,4.14,0,8,.08,11.66.23l-1.91,5.8,12.89,2.81,10.32,2.25A477.05,477.05,0,0,0,504.51,472c79.49,0,117.71-24.79,136-50.58l4.48,5.38,8-16.78,6.38-13.42c3.59-7.55,19.77-54.43,19.77-54.43l7.08-23.74c.85-2.85,18.84-64.57,5.1-129Z"/><path class="cls-1" d="M684.78,175.91l-7.46-17c-24.34-55.39-58.46-86.49-71.57-97l1.79-3.73a11.32,11.32,0,0,0-7.42-15.92c-10.76-2.7-66.59-16.6-110-24.64a353.26,353.26,0,0,0-63.36-5.75c-67,0-119,18.76-142.79,51.49-15.62,21.51-19.22,48.05-10.74,79C129.72,198.85,32.73,309,14.52,330.79a11.33,11.33,0,0,0,8.69,18.6h.61c24.32-1.31,154.3-11.34,326.56-80.62a.46.46,0,0,1,.69.27c.08.13.1.15,0,.38-9,16.94-24.62,37-38.88,50-3.42,3.24-81.14,76.88-105.33,120.24a11.34,11.34,0,0,0,9.91,16.86,10.19,10.19,0,0,0,1.55-.11c2.54-.35,6.41-.93,11.35-1.67,30.07-4.51,100.5-15.09,150.54-15.09a214.64,214.64,0,0,1,27.68,1.51l-2.51,7.6L415.67,451a463.67,463.67,0,0,0,88.84,9.07c71.08,0,117.34-20.57,134.06-59.51l3.61,4.32,6.37-13.42c6.32-13.3,12.77-37.17,17.08-57l2,4.28L674.75,315c1-3.21,21.53-73.92.08-141.19Z"/><path class="cls-2" d="M684.78,175.91l-7.46-17c-24.34-55.39-58.46-86.49-71.57-97l1.79-3.73a11.32,11.32,0,0,0-7.42-15.92c-10.76-2.7-66.59-16.6-110-24.64a353.26,353.26,0,0,0-63.36-5.75c-67,0-119,18.76-142.79,51.49-15.62,21.51-19.22,48.05-10.74,79C129.72,198.85,32.73,309,14.52,330.79a11.33,11.33,0,0,0,8.69,18.6h.61c24.32-1.31,154.3-11.34,326.56-80.62a.46.46,0,0,1,.69.27c.08.13.1.15,0,.38-9,16.94-24.62,37-38.88,50-3.42,3.24-81.14,76.88-105.33,120.24a11.34,11.34,0,0,0,9.91,16.86,10.19,10.19,0,0,0,1.55-.11c2.54-.35,6.41-.93,11.35-1.67,30.07-4.51,100.5-15.09,150.54-15.09a214.64,214.64,0,0,1,27.68,1.51l-2.51,7.6L415.67,451a463.67,463.67,0,0,0,88.84,9.07c71.08,0,117.34-20.57,134.06-59.51l3.61,4.32,6.37-13.42c6.32-13.3,12.77-37.17,17.08-57l2,4.28L674.75,315c1-3.21,21.53-73.92.08-141.19Z"/><path class="cls-3" d="M665.63,312.28s24.46-82-5.79-151.36l8.77,1.85C639.3,96.08,595,65.72,595,65.72a1.78,1.78,0,0,1-.56-2.24l4.52-9.4a1.82,1.82,0,0,0-1.17-2.58C586.34,48.62,531.37,35,488.39,27c-98.75-18.31-241.25,5.1-204,119.4a1.82,1.82,0,0,1-1.07,2.27C137.69,203.71,38.81,316.56,21.82,336.89a1.82,1.82,0,0,0,1.5,3c24.16-1.3,152.6-11.21,323.51-79.95a10,10,0,0,1,12.61,13.95c-9.52,17.91-26,39-40.87,52.58,0,0-79.68,75.25-103.43,117.84A1.83,1.83,0,0,0,217,447c23-3.16,156.11-25.54,203.29-13.14l-2.6,7.87s179.67,39.15,213.09-47.24c1.65-4.12,3.21-8.25,4.77-12.38l4.41,5.29c10.7-22.53,21.32-75.5,21.32-84.27Zm-7-150.91c-.16-.45-.29-.93-.45-1.38l.45.25Z"/><path class="cls-4" d="M460.14,141.66a146.29,146.29,0,0,0-17.36-6.86,86.49,86.49,0,0,0-76.26,11.91,235.71,235.71,0,0,1-24.26,15.35,20.85,20.85,0,0,0,7.68,1.77c-.21,29,25,31.12,25,31.12,23.67,3,40.33-13.18,40.33-13.18,8.95,12.64,14.32,24.72,17.1,36.19,1.5-7.84,2.8-19.48.66-31.06a57.38,57.38,0,0,1,32.41,16.77s.59-6-.88-10.54c0,0,14.8.77,28.38,30.14,1.79-50.7-67.26-70.43-67.26-70.43C434.53,142,460.14,141.66,460.14,141.66ZM407.28,165c0,.12,0,.23-.07.34a13.78,13.78,0,0,1-.91,2.6c-.05.1-.08.2-.12.3a17.27,17.27,0,0,1-1.7,2.8l-.05.06a20.12,20.12,0,0,1-2.26,2.41l-.46.42a25.32,25.32,0,0,1-2.06,1.59c-.27.2-.53.4-.81.58s-.42.25-.62.37a49,49,0,0,1-15.46,5.88,16.52,16.52,0,0,1-2.42.31c-25.94,1.57-21.46-20.25-21.46-20.25a82.3,82.3,0,0,0,11.18-2.66,6.16,6.16,0,0,0-.51,1.66,7.48,7.48,0,0,0,6.7,8.18,5.64,5.64,0,0,0,.93-.09l-.08.12-2.85,1.4s12.14.35,10.06-10.05c0-.23-.07-.45-.13-.68s0-.18-.06-.28l0,.05a7.44,7.44,0,0,0-4-4.53,59.49,59.49,0,0,1,23.09-7.66,27.6,27.6,0,0,1,3.93,8.73,1.21,1.21,0,0,1,.05.18,19.8,19.8,0,0,1,.47,2.84,18.13,18.13,0,0,1,0,2.86A15.6,15.6,0,0,1,407.28,165Z"/><path class="cls-5" d="M401,169.53a15.29,15.29,0,0,1-.91,2.55A14.28,14.28,0,0,0,401,169.53Z"/><path class="cls-5" d="M401.44,166.71a16.79,16.79,0,0,1-.36,2.49A14.23,14.23,0,0,0,401.44,166.71Z"/><path class="cls-5" d="M400,172.38a15.08,15.08,0,0,1-1.67,2.75A15.4,15.4,0,0,0,400,172.38Z"/><path class="cls-5" d="M393.58,179.54c-.28.19-.52.39-.81.58C393.05,179.93,393.31,179.73,393.58,179.54Z"/><path class="cls-5" d="M396.05,177.57l-.45.41Z"/><path class="cls-6" d="M359.16,162.48s-7.3,28.74,25.46,25.42c0,0,33-7.54,22.51-31.12,0,0-24.19,20-34.31,16S359.16,162.48,359.16,162.48Z"/><path class="cls-5" d="M388.45,177.81c5.7-4.55,11.57-12.54,11.57-12.54h-4.24c6.84-6,7.37-17.4,7.37-17.4a59.49,59.49,0,0,0-23.09,7.66,7.44,7.44,0,0,1,4,4.53l0-.05c0,.1,0,.18.06.28s.09.45.13.68c2.08,10.4-10.06,10.05-10.06,10.05l2.85-1.4.08-.12a5.64,5.64,0,0,1-.93.09,7.48,7.48,0,0,1-6.7-8.18,6.16,6.16,0,0,1,.51-1.66,82.3,82.3,0,0,1-11.18,2.66s-4.48,21.82,21.46,20.25a.53.53,0,0,0,.15,0C381.06,182.5,383.52,181.74,388.45,177.81Z"/><path class="cls-4" d="M303,184.26c-4.83,3.63-7.24,8.2-5.38,10.22s7.3.7,12.14-2.94,7.24-8.2,5.38-10.21S307.84,180.63,303,184.26Z"/><path class="cls-7" d="M374.58,186.57l.14,0"/><path class="cls-8" d="M407.6,159.62a19.8,19.8,0,0,0-.47-2.84,1.21,1.21,0,0,0-.05-.18,27.6,27.6,0,0,0-3.93-8.73s-.53,11.37-7.37,17.4H400s-5.87,8-11.57,12.54c-4.93,3.93-7.39,4.69-8,4.82,7.91-1.49,13.62-3.65,17.73-6.16.2-.12.42-.24.62-.37s.54-.39.81-.58a25.32,25.32,0,0,0,2.06-1.59l.46-.42a20.12,20.12,0,0,0,2.26-2.41l.05-.06a16.63,16.63,0,0,0,1.7-2.8c0-.1.07-.2.12-.3a14.63,14.63,0,0,0,.91-2.6c0-.11,0-.22.07-.34a15.8,15.8,0,0,0,.37-2.52A18.13,18.13,0,0,0,407.6,159.62Z"/><path class="cls-9" d="M457.2,141.79c1.81-.11,2.94-.13,2.94-.13a146.29,146.29,0,0,0-17.36-6.86,86.49,86.49,0,0,0-76.26,11.91,235.71,235.71,0,0,1-24.26,15.35l.06,0c4.49-2.1,9.57-4.57,15.23-7.51C386.48,139.56,423.16,134.94,457.2,141.79Z"/><path class="cls-10" d="M532.18,358c-5.28-13.16-8.94-19-15.06-21.07s-12.66.62-12.66.62-.73,1.41,1.83,10-3.28,21.16-4.68,28.34-1.43,21.71-1.76,27.61c4.09.56,8.08,1.11,11.92,1.61,1.33-7.91,2.19-17.6,3.14-22.09,1.72-8.18,3.89-10.63,4.72-15s1.43-6.51,1.43-6.51,4.75,17.26,3.26,29.43a101.39,101.39,0,0,0-.53,15.65q6,.72,11.54,1.34c0-.94,0-1.79-.05-2.83C534.72,389.57,537.45,371.11,532.18,358Z"/><path class="cls-10" d="M490,346.37c-2.29-6.05-5.23-7.64-5.23-7.64s-8.45-3.56-9.77,7.64,2,20.63,1.33,33.53c-.36,6.79-1,14-.66,20.08,3.88.57,7.71,1.14,11.41,1.67-.22-10,2.8-20.54,4.63-29.92C493.57,362,492.26,352.43,490,346.37Z"/><path class="cls-10" d="M463,357.69c2.1-7.65-4-16.75-9-16,0,0-6.46,7.62-5.3,14s6.15,21.22,2.26,28.41c-2.33,4.3-3.53,8.61-3.22,11.74l15.35,2.28c.16-4.65-.57-10.86.52-15.34C465.24,376.2,460.9,365.33,463,357.69Z"/><path class="cls-10" d="M415.55,384a30.36,30.36,0,0,1-.51,7.14c6.77,1,13.36,1.94,19.7,2.87A37.51,37.51,0,0,0,437,383c.77-10.2-1.44-16.76-1.6-24.66s-2.44-14.28-8.23-14c0,0-6.06-1-9,9.77S414.92,379,415.55,384Z"/><path class="cls-10" d="M393.65,388.14l7.33,1c0-.41,0-.79,0-1.23.38-7.57,3.65-23.48,4.46-26.71s-2.44-8.14-9.21-6.83A10.24,10.24,0,0,1,386.1,351s-1.63,13.81-2.81,20.23c-.57,3-2.74,9.43-4.08,15l7.18.93c1.26.17,6.78-26.16,8-26S392.5,388,393.65,388.14Z"/><path class="cls-10" d="M366.67,375.06c2-8.56,2.48-21.18-2.15-21.39,0,0-15.18,8.62-18,11-1.7,1.43-3.33,10.17-3.84,17.12q11.05,1.21,21.49,2.5C365.13,381.35,366,378.06,366.67,375.06Z"/><path class="cls-10" d="M335,358.45s-.3-10.41-14.54,13.38c-1,.36-5.69-4.51-5.69-4.5s-2.53,4.62-10.9,8.88l-.37.2c10,1.25,19.57,2.71,28.69,4.23C334.31,372.22,335,358.45,335,358.45Z"/><path class="cls-10" d="M548.35,409.24c4.27.39,8.33.74,12.19,1a81.61,81.61,0,0,0,.48-10.84c-.09-5.7-.45-11.31-.94-16.66-1.63-18.11-4.67-33.21-3.33-38.74,1.72-7.16,4.52-14,.14-14.62s-5.92-.07-6.62,5.49-.55,6.35-.55,6.35-10.75-13-17.9-8.63c0,0,9.62,13.76,12.16,23.65s4.88,24.31,4.45,36.59C548.23,398.61,548.24,404.34,548.35,409.24Z"/><path class="cls-10" d="M581.61,411.35c2.06-11,3.5-24.3,2.34-35.42-2.29-21.8-4.78-44.85-10.34-47.72a4.87,4.87,0,0,0-.51.43,19.83,19.83,0,0,0-6.34,13.56,71.79,71.79,0,0,0,1,11.47c1.45,10,3.81,23.61,3.65,37.73A161.34,161.34,0,0,1,570,410.88Q576.19,411.21,581.61,411.35Z"/><path class="cls-10" d="M632.7,305.7s-5-5.29-6.88,5.53c-1.43,8.09,1.21,25.06,2.84,39.77q3.42-11,6.38-21.94C633.91,314.4,634.29,306.1,632.7,305.7Z"/><path class="cls-10" d="M622,356.07c-3.24-18.62-5.06-29-3.22-38.16s.26-14-1.52-14.68c0,0-4.53-.52-7.51,8.68s-2,27.5-.82,35c1.1,6.86,4.57,30.54,4,47,.58-1,1.23-1.95,1.75-3,3-7.67,5.78-15.44,8.47-23.25A100.91,100.91,0,0,0,622,356.07Z"/><path class="cls-10" d="M603.24,406.24c1.61-15.4,2.3-32.59.33-42.86-3.91-20.29-4.52-36.23-2.88-43.5s-.22-12.62-2.46-12.15a139.05,139.05,0,0,0-7.07,16.36C588,333,593.9,370,593.69,389c-.06,6.21-.87,18.05-1.88,26.15A71,71,0,0,0,603.24,406.24Z"/><path class="cls-11" d="M514.91,383c1.72-8.18,3.89-10.63,4.72-15,.31-1.59.57-2.79.79-3.8-6.65,10.89-13.52,21.23-20.27,30.85-.11,3.36-.19,6.39-.3,8.39,4.09.56,8.08,1.11,11.92,1.61C513.1,397.16,514,387.47,514.91,383Z"/><path class="cls-11" d="M524.32,390.94a101.39,101.39,0,0,0-.53,15.65q6,.72,11.54,1.34c0-.94,0-1.79-.05-2.83-.56-15.53,2.17-34-3.1-47.14-1.21-3-2.33-5.62-3.42-7.91q-3.64,6.4-7.41,12.62C522.36,366.67,525.59,380.61,524.32,390.94Z"/><path class="cls-11" d="M548.35,409.24c4.27.39,8.33.74,12.19,1a81.61,81.61,0,0,0,.48-10.84c-.09-5.7-.45-11.31-.94-16.66-1.63-18.11-4.67-33.21-3.33-38.74,1.72-7.16,4.52-14,.14-14.62s-5.92-.07-6.62,5.49-.55,6.35-.55,6.35-5.64-6.78-11.47-8.88c-1,1.9-1.92,3.81-2.91,5.69,3,4.91,7.11,12.24,8.64,18.21,2.54,9.89,4.88,24.31,4.45,36.59C548.23,398.61,548.24,404.34,548.35,409.24Z"/><path class="cls-11" d="M571.45,391.4A161.34,161.34,0,0,1,570,410.88q6.18.33,11.6.47c2.06-11,3.5-24.3,2.34-35.42-2.29-21.8-4.78-44.85-10.34-47.72a4.87,4.87,0,0,0-.51.43,19.83,19.83,0,0,0-6.34,13.56,71.79,71.79,0,0,0,1,11.47C569.25,363.7,571.61,377.28,571.45,391.4Z"/><path class="cls-11" d="M625.82,311.23c-1.43,8.09,1.21,25.06,2.84,39.77q3.42-11,6.38-21.94c-1.13-14.66-.75-23-2.34-23.36C632.7,305.7,627.74,300.41,625.82,311.23Z"/><path class="cls-11" d="M614.7,390.91c3-7.67,5.78-15.44,8.47-23.25A100.91,100.91,0,0,0,622,356.07c-3.24-18.62-5.06-29-3.22-38.16s.26-14-1.52-14.68c0,0-4.53-.52-7.51,8.68s-2,27.5-.82,35c1.1,6.86,4.57,30.54,4,47C613.53,392.9,614.18,392,614.7,390.91Z"/><path class="cls-11" d="M603.24,406.24c1.61-15.4,2.3-32.59.33-42.86-3.91-20.29-4.52-36.23-2.88-43.5s-.22-12.62-2.46-12.15a139.05,139.05,0,0,0-7.07,16.36C588,333,593.9,370,593.69,389c-.06,6.21-.87,18.05-1.88,26.15A71,71,0,0,0,603.24,406.24Z"/><g class="cls-12"><path class="cls-13" d="M77.64,314.71s70-67.46,246.73-147.81l-10.25-1.65s-24.47,5.32-67.65,29.26C161.49,241.62,105.91,283.31,77.64,314.71Z"/><path class="cls-14" d="M149,299.47s136.92-34.23,196.74-63.25l-7.83-4.28S172.08,289.2,149,299.47Z"/></g><path class="cls-4" d="M341.48,206.2a18.25,18.25,0,0,1,5.93-.1c1,.35,1,.42.75,1.11a6.65,6.65,0,0,1-1.6,2,165.13,165.13,0,0,1-18.75,8.93,18.08,18.08,0,0,0-5.19,3.24,7.38,7.38,0,0,0-2,7.86,9.8,9.8,0,0,0,5.48,5.29,21.36,21.36,0,0,0,6.08,1.55,91.65,91.65,0,0,0,11,.24h2.48C313.14,249,279.56,258.75,254.6,268c-35.89,13.28-74,23.85-105.63,31.57,45.45-21.83,121.27-61.15,137.48-70.72,4.32-2.54,1.75-2.61-1.59-1.39C256.38,237.8,145.8,290.27,106,309.25c-17.57,3.66-28.44,5.53-28.44,5.53,75.7-80.36,228.7-151.06,237.06-149.21a68.54,68.54,0,0,0,9.67,1.4A48.69,48.69,0,0,1,316,158c-20.71-27.79-7.17-72,22.15-90.45C354,57.57,378,49.18,414.25,47.78c28.86-.62,59.84,2.42,85.24,6.73C510,56.29,565.73,67.2,565.73,67.2s-8.61,3.74-3.44,7c10.61,6.68,40.3,36.45,40.3,36.45l-7.26.46c11.91,7.49,35.49,39.48,35.49,39.48l-7.76-1a198.4,198.4,0,0,1,30,64.29l-5.37-.25c7.44,19.14,8.2,74.2,8.2,74.2C685.08,150.49,576.83,71.07,578,69.34c2.72-4.16,5.25-8.46,5.25-8.46-46.75-12.87-102-20-102-20C234,16.88,303.76,157.06,303.76,157.06,170.38,202.49,49.49,327.29,49.49,327.29c126.32-19,285.65-71.12,313.93-88.71A20.18,20.18,0,0,1,383,237.23c25.92,13.42-47.67,108.15-47.67,108.15,53.25-54.86,72.66-99.35,61.93-119-4.89-9-21.45-2.93-28.64.23a27.29,27.29,0,0,0-5.39-.89c-3.54-.27-6.83.31-10.31.69l-10.29,1.47a71.57,71.57,0,0,1-9.94,1c-3,.11-6-.95-6.41-1.88-.23-.36-.33-.91.33-1.76a13.25,13.25,0,0,1,3.44-2.63,163.85,163.85,0,0,0,17.67-11.66l.13-.1h0a8.76,8.76,0,0,0,2-2.94,2.43,2.43,0,0,0-.26-2.3,3,3,0,0,0-1.86-.94,19.09,19.09,0,0,0-6.43.62s-.38,0-.3.6C341,205.82,341,206.2,341.48,206.2Z"/><path class="cls-10" d="M366.9,277.42c-.66.93-1.33,2.06-.91,3.12l-.26.33a22.15,22.15,0,0,0,2.58,11.44c1.17-.88,2.47-1.57,3.63-2.45l.65.53a4.74,4.74,0,0,0,4.51.46c.89-.31.17-2.8.61-4.61,1-3.91,2.3-8.75,1.9-10.45C377.72,267.94,370.12,272.88,366.9,277.42Z"/><path class="cls-10" d="M385.32,268.89a7.52,7.52,0,0,1,1-4.05,2.86,2.86,0,0,1,3.61-1.13c1.89.17,3.79.28,5.68.45l-.47,1.25a5.94,5.94,0,0,1,.85,3.28,30.51,30.51,0,0,0,3,13.11,7.49,7.49,0,0,1-4,2.92l-.86.38a8.84,8.84,0,0,1-2-6.92l-.25-.55-.27-2.82-1.57-.6-.15.4c-.46.42-.91.85-1.38,1.27l-.15.4a13.17,13.17,0,0,1-.67,6.52l-.15.39a8.86,8.86,0,0,1-.95,3.7l-.15.4c-5.16-.43-2.32-3.37-1.61-7S385.15,272.67,385.32,268.89Z"/><path class="cls-10" d="M404.53,262l-.77,1a3.38,3.38,0,0,0-2,2.78,9.43,9.43,0,0,0,.28,3.5c1,4.92,2.28,10.18,6.21,13.26a4,4,0,0,0,1.28-4.33l.26-.33a32.26,32.26,0,0,1,3.05,2.92l2,1.55a6.74,6.74,0,0,0,1.43-5.3c.39-.07.79-.07,1.17-.15l.26-.33A6.7,6.7,0,0,0,419,271.1c-.64-5-4.47-14.42-7.49-18.41C405.44,244.6,406.12,259.92,404.53,262Z"/><path class="cls-11" d="M379.64,275.79c-1.89-7.85-9.49-2.91-12.71,1.63-.66.93-1.33,2.06-.9,3.12l-.27.33a22.06,22.06,0,0,0,2.59,11.44c1.16-.88,2.47-1.57,3.63-2.45l.64.53a4.71,4.71,0,0,0,4.51.46c.89-.31.17-2.8.61-4.61C378.69,282.33,380.05,277.49,379.64,275.79Z"/><path class="cls-11" d="M383.88,283.45A121.57,121.57,0,0,0,393.75,264c-1.26-.09-2.51-.19-3.76-.3a2.87,2.87,0,0,0-3.62,1.13,7.61,7.61,0,0,0-1,4.05c-.17,3.78.25,7.7-.5,11.44A22,22,0,0,1,383.88,283.45Z"/><path class="cls-15" d="M565.82,246.18c-9.33,7.3-20.65,11.5-31.77,15.57s-22.46,8.23-31.84,15.46c-8.33,6.41-15.71,16.22-16.38,27,5.43-16,21.07-26.08,36.09-31.93,16.15-6.29,33.62-9.42,48.71-17.95,5-2.8,9.7-6.26,12.86-11s4.52-10.43,5.49-16a140.6,140.6,0,0,0,.09-46.76C592.35,204.89,585,231.16,565.82,246.18Z"/></g></g></svg>